<?xml version="1.0" encoding="utf-8"?>
<!-- Generator: Adobe Illustrator 16.0.4, SVG Export Plug-In . SVG Version: 6.00 Build 0)  -->
<!DOCTYPE svg PUBLIC "-//W3C//DTD SVG 1.1//EN" "http://www.w3.org/Graphics/SVG/1.1/DTD/svg11.dtd">
<svg version="1.1" id="Layer_1" xmlns="http://www.w3.org/2000/svg" xmlns:xlink="http://www.w3.org/1999/xlink" x="0px" y="0px"
	 width="50px" height="50px" viewBox="0 0 50 50" style="enable-background:new 0 0 50 50;" xml:space="preserve">
<style type="text/css">
<![CDATA[
	.st0{fill:#FFFFFF;}
]]>
</style>
<g>
	<g>
		<path class="st0" d="M28.305,23.571c-1.115,0.445-2.322,0.647-3.549,0.515c-0.914-0.099-1.765-0.367-2.552-0.743
			c-0.541,0.783-0.947,2.276-1.174,4.985l8.212,0.1C29.096,25.876,28.766,24.401,28.305,23.571z"/>
		<path class="st0" d="M28.424,49.955c0,0,0.844-12.211,0.902-17c0.008-0.73,0.008-1.41,0.002-2.043l-8.447-0.102
			c-0.023,0.633-0.039,1.312-0.047,2.043c-0.059,4.811,0.494,17.102,0.494,17.102H28.424z"/>
		<path class="st0" d="M29.604,20.822c0.93-0.908,1.561-2.129,1.711-3.521c0.828-7.661-7.343-8.598-4.072-16.255
			c-1.332,0.229-2.496,0.915-3.492,1.889c-3.285,3.206-4.769,9.538-4.516,13.011c0.092,3.494,2.519,6.151,5.7,6.494
			C26.723,22.632,28.41,21.988,29.604,20.822z"/>
	</g>
	<g>
	</g>
	<g>
	</g>
	<g>
	</g>
	<g>
	</g>
	<g>
	</g>
	<g>
	</g>
	<g>
	</g>
	<g>
	</g>
	<g>
	</g>
	<g>
	</g>
	<g>
	</g>
	<g>
	</g>
	<g>
	</g>
	<g>
	</g>
	<g>
	</g>
</g>
</svg>
