<?xml version="1.0" encoding="utf-8"?>
<!-- Generator: Adobe Illustrator 16.0.4, SVG Export Plug-In . SVG Version: 6.00 Build 0)  -->
<!DOCTYPE svg PUBLIC "-//W3C//DTD SVG 1.1//EN" "http://www.w3.org/Graphics/SVG/1.1/DTD/svg11.dtd">
<svg version="1.1" id="Layer_1" xmlns="http://www.w3.org/2000/svg" xmlns:xlink="http://www.w3.org/1999/xlink" x="0px" y="0px"
	 width="50px" height="100px" viewBox="0 -25 50 100" enable-background="new 0 -25 50 100" xml:space="preserve">
<g>
	<path fill="#FFFFFF" d="M8.404-4.905h6.331L13.97,22.854c0,0,0.139,1.74-2.4,1.74s-2.47-1.74-2.47-1.74L8.404-4.905z"/>
	<path fill="#FFFFFF" d="M21.414-4.905h6.332L26.98,22.854c0,0,0.139,1.74-2.4,1.74s-2.47-1.74-2.47-1.74L21.414-4.905z"/>
	<path fill="#FFFFFF" d="M34.424-4.905h6.331l-0.767,27.759c0,0,0.141,1.739-2.399,1.739c-2.539,0-2.469-1.739-2.469-1.739
		L34.424-4.905z"/>
	<path fill="#FFFFFF" d="M11.882-24.594c0,0-10.853,5.983-3.479,18.089h6.331c0,0,4.8-7.931,1.461-10.784
		C11.674-20.977,11.882-24.594,11.882-24.594z"/>
	<path fill="#FFFFFF" d="M20.245-18.193c-1.183,0,9.67,0,8.696,0c-0.976,0-1.811,11.34-1.811,11.34h-5.148
		C21.984-6.854,21.428-18.193,20.245-18.193z"/>
	<path fill="#FFFFFF" d="M31.71-18.193c0,0,0.14-2.922,5.879-2.922c5.74,0,6.575,2.922,6.575,2.922l-4.021,11.34h-5.146
		L31.71-18.193z"/>
</g>
<g>
	<linearGradient id="SVGID_1_" gradientUnits="userSpaceOnUse" x1="11.5693" y1="25.5" x2="11.5693" y2="74.138">
		<stop  offset="0" style="stop-color:#882C94"/>
		<stop  offset="1" style="stop-color:#620094"/>
	</linearGradient>
	<path fill="url(#SVGID_1_)" d="M8.404,45.04h6.331L13.97,72.799c0,0,0.139,1.74-2.4,1.74s-2.47-1.74-2.47-1.74L8.404,45.04z"/>
	<linearGradient id="SVGID_2_" gradientUnits="userSpaceOnUse" x1="24.5796" y1="25.5" x2="24.5796" y2="74.138">
		<stop  offset="0" style="stop-color:#882C94"/>
		<stop  offset="1" style="stop-color:#620094"/>
	</linearGradient>
	<path fill="url(#SVGID_2_)" d="M21.414,45.04h6.332L26.98,72.799c0,0,0.139,1.74-2.4,1.74s-2.47-1.74-2.47-1.74L21.414,45.04z"/>
	<linearGradient id="SVGID_3_" gradientUnits="userSpaceOnUse" x1="37.5898" y1="25.5" x2="37.5898" y2="74.138">
		<stop  offset="0" style="stop-color:#882C94"/>
		<stop  offset="1" style="stop-color:#620094"/>
	</linearGradient>
	<path fill="url(#SVGID_3_)" d="M34.424,45.04h6.331l-0.767,27.759c0,0,0.141,1.739-2.399,1.739c-2.539,0-2.469-1.739-2.469-1.739
		L34.424,45.04z"/>
	<linearGradient id="SVGID_4_" gradientUnits="userSpaceOnUse" x1="11.6055" y1="25.5" x2="11.6055" y2="74.138">
		<stop  offset="0" style="stop-color:#882C94"/>
		<stop  offset="1" style="stop-color:#620094"/>
	</linearGradient>
	<path fill="url(#SVGID_4_)" d="M11.882,25.352c0,0-10.853,5.982-3.479,18.089h6.331c0,0,4.8-7.931,1.461-10.784
		C11.674,28.969,11.882,25.352,11.882,25.352z"/>
	<linearGradient id="SVGID_5_" gradientUnits="userSpaceOnUse" x1="24.5786" y1="25.5" x2="24.5786" y2="74.138">
		<stop  offset="0" style="stop-color:#882C94"/>
		<stop  offset="1" style="stop-color:#620094"/>
	</linearGradient>
	<path fill="url(#SVGID_5_)" d="M20.245,31.752c-1.183,0,9.67,0,8.696,0c-0.976,0-1.811,11.34-1.811,11.34h-5.148
		C21.984,43.092,21.428,31.752,20.245,31.752z"/>
	<linearGradient id="SVGID_6_" gradientUnits="userSpaceOnUse" x1="37.9375" y1="25.5" x2="37.9375" y2="74.138">
		<stop  offset="0" style="stop-color:#882C94"/>
		<stop  offset="1" style="stop-color:#620094"/>
	</linearGradient>
	<path fill="url(#SVGID_6_)" d="M31.71,31.752c0,0,0.14-2.922,5.879-2.922c5.74,0,6.575,2.922,6.575,2.922l-4.021,11.34h-5.146
		L31.71,31.752z"/>
</g>
</svg>
