<?xml version="1.0" encoding="utf-8"?>
<!-- Generator: Adobe Illustrator 16.0.4, SVG Export Plug-In . SVG Version: 6.00 Build 0)  -->
<!DOCTYPE svg PUBLIC "-//W3C//DTD SVG 1.1//EN" "http://www.w3.org/Graphics/SVG/1.1/DTD/svg11.dtd">
<svg version="1.1" id="Layer_1" xmlns="http://www.w3.org/2000/svg" xmlns:xlink="http://www.w3.org/1999/xlink" x="0px" y="0px"
	 width="50px" height="100px" viewBox="0 -25 50 100" enable-background="new 0 -25 50 100" xml:space="preserve">
<circle cx="9.5" cy="-7.813" r="2.833"/>
<circle cx="17.25" cy="-12.813" r="2.833"/>
<circle cx="27.25" cy="-13.896" r="2.833"/>
<circle cx="37.333" cy="-10.646" r="2.833"/>
<circle cx="41.833" cy="-1.504" r="2.833"/>
<circle cx="35.583" cy="8.33" r="4.661"/>
<g>
	<g>
		<g>
			<path fill="#FFFFFF" d="M25-19.588c-13.493,0-24.429,8.505-24.429,18.998c0,6.473,9.136,6.504,16.747,5.405
				C22.96,4.003,27.41,6.173,27.41,10.493c0,4.318,4.771,7.674,9.956,5.305C44.584,12.495,49.43,6.396,49.43-0.591
				C49.43-11.083,38.491-19.588,25-19.588z M9.603-5.463c-1.283,0-2.322-1.041-2.322-2.323c0-1.283,1.04-2.321,2.322-2.321
				c1.282,0,2.322,1.04,2.322,2.321C11.925-6.503,10.884-5.463,9.603-5.463z M17.2-10.458c-1.283,0-2.322-1.04-2.322-2.322
				c0-1.283,1.04-2.322,2.322-2.322c1.283,0,2.322,1.041,2.322,2.322C19.523-11.499,18.483-10.458,17.2-10.458z M27.323-11.275
				c-1.283,0-2.323-1.04-2.323-2.322c0-1.284,1.04-2.322,2.323-2.322c1.28,0,2.321,1.04,2.321,2.322
				C29.645-12.314,28.604-11.275,27.323-11.275z M35.666,11.866c-2.125,0-3.848-1.725-3.848-3.849c0-2.125,1.723-3.847,3.848-3.847
				s3.848,1.722,3.848,3.847C39.514,10.14,37.791,11.866,35.666,11.866z M37.189-8.138c-1.282,0-2.32-1.04-2.32-2.322
				s1.038-2.322,2.32-2.322c1.283,0,2.322,1.041,2.322,2.322C39.514-9.176,38.473-8.138,37.189-8.138z M41.835,0.82
				c-1.282,0-2.319-1.041-2.319-2.323c0-1.283,1.039-2.322,2.319-2.322c1.283,0,2.323,1.041,2.323,2.322
				C44.158-0.221,43.118,0.82,41.835,0.82z"/>
		</g>
	</g>
</g>
<g>
	<g>
		<g>
			<linearGradient id="SVGID_1_" gradientUnits="userSpaceOnUse" x1="25" y1="30.375" x2="25" y2="66.118">
				<stop  offset="0" style="stop-color:#882C94"/>
				<stop  offset="1" style="stop-color:#620094"/>
			</linearGradient>
			<path fill="url(#SVGID_1_)" d="M25,30.412c-13.493,0-24.429,8.504-24.429,18.997c0,6.473,9.136,6.504,16.747,5.405
				c5.642-0.812,10.092,1.358,10.092,5.679c0,4.318,4.771,7.674,9.956,5.305c7.218-3.303,12.063-9.402,12.063-16.389
				C49.43,38.916,38.491,30.412,25,30.412z M9.603,44.537c-1.283,0-2.322-1.041-2.322-2.324c0-1.282,1.04-2.32,2.322-2.32
				c1.282,0,2.322,1.04,2.322,2.32C11.925,43.496,10.884,44.537,9.603,44.537z M17.2,39.541c-1.283,0-2.322-1.039-2.322-2.321
				c0-1.283,1.04-2.322,2.322-2.322c1.283,0,2.322,1.041,2.322,2.322C19.523,38.502,18.483,39.541,17.2,39.541z M27.323,38.725
				c-1.283,0-2.323-1.04-2.323-2.322c0-1.283,1.04-2.322,2.323-2.322c1.28,0,2.321,1.041,2.321,2.322
				C29.645,37.686,28.604,38.725,27.323,38.725z M35.666,61.866c-2.125,0-3.848-1.725-3.848-3.849c0-2.125,1.723-3.847,3.848-3.847
				s3.848,1.722,3.848,3.847C39.514,60.14,37.791,61.866,35.666,61.866z M37.189,41.862c-1.282,0-2.32-1.04-2.32-2.321
				c0-1.282,1.038-2.322,2.32-2.322c1.283,0,2.322,1.041,2.322,2.322C39.514,40.824,38.473,41.862,37.189,41.862z M41.835,50.82
				c-1.282,0-2.319-1.041-2.319-2.322c0-1.283,1.039-2.322,2.319-2.322c1.283,0,2.323,1.041,2.323,2.322S43.118,50.82,41.835,50.82z
				"/>
		</g>
	</g>
</g>
</svg>
