<?xml version="1.0" encoding="utf-8"?>
<!-- Generator: Adobe Illustrator 16.0.4, SVG Export Plug-In . SVG Version: 6.00 Build 0)  -->
<!DOCTYPE svg PUBLIC "-//W3C//DTD SVG 1.1//EN" "http://www.w3.org/Graphics/SVG/1.1/DTD/svg11.dtd">
<svg version="1.1" id="Layer_1" xmlns="http://www.w3.org/2000/svg" xmlns:xlink="http://www.w3.org/1999/xlink" x="0px" y="0px"
	 width="50px" height="100px" viewBox="0 -25 50 100" enable-background="new 0 -25 50 100" xml:space="preserve">
<polygon points="26.646,12.596 34.766,5.542 34.766,-2.334 26.646,4.955 "/>
<rect x="3.833" y="5.499" width="20.5" height="8.583"/>
<polygon points="25.151,2.833 6.133,2.833 13.601,-3.873 32.619,-3.873 "/>
<g>
	<path fill="#FFFFFF" d="M47.366-16.997H24.527c-0.394,0-0.774,0.146-1.067,0.408L1.568,3.075C1.231,3.377,1.04,3.809,1.04,4.26
		v11.141c0,0.881,0.715,1.596,1.594,1.596h22.839c0.392,0,0.772-0.146,1.066-0.408L48.432-3.074
		c0.336-0.303,0.528-0.736,0.528-1.188v-11.14C48.96-16.283,48.247-16.997,47.366-16.997z M31.953-3.705l-7.092,6.369H6.8
		l7.091-6.368L31.953-3.705z M27.068,4.973l7.274-6.535l0.009,6.841l-7.283,6.543V4.973z M4.23,5.856h19.647v7.947H4.23V5.856z"/>
</g>
<g>
	<linearGradient id="SVGID_1_" gradientUnits="userSpaceOnUse" x1="24.9995" y1="33.25" x2="24.9995" y2="66.591">
		<stop  offset="0" style="stop-color:#882C94"/>
		<stop  offset="1" style="stop-color:#620094"/>
	</linearGradient>
	<path fill="url(#SVGID_1_)" d="M47.366,33.004H24.527c-0.394,0-0.774,0.146-1.067,0.408L1.568,53.074
		C1.231,53.377,1.04,53.809,1.04,54.26V65.4c0,0.881,0.715,1.596,1.594,1.596h22.839c0.392,0,0.772-0.146,1.066-0.408l21.893-19.662
		c0.336-0.303,0.528-0.735,0.528-1.188v-11.14C48.96,33.717,48.247,33.004,47.366,33.004z M31.953,46.295l-7.092,6.369H6.8
		l7.091-6.367L31.953,46.295z M27.068,54.973l7.274-6.534l0.009,6.841l-7.283,6.543V54.973z M4.23,55.855h19.647v7.947H4.23V55.855z
		"/>
</g>
</svg>
