<?xml version="1.0" encoding="utf-8"?>
<!-- Generator: Adobe Illustrator 16.0.4, SVG Export Plug-In . SVG Version: 6.00 Build 0)  -->
<!DOCTYPE svg PUBLIC "-//W3C//DTD SVG 1.1//EN" "http://www.w3.org/Graphics/SVG/1.1/DTD/svg11.dtd">
<svg version="1.1" id="Layer_1" xmlns="http://www.w3.org/2000/svg" xmlns:xlink="http://www.w3.org/1999/xlink" x="0px" y="0px"
	 width="105.109px" height="436.082px" viewBox="0 0 105.109 436.082" style="enable-background:new 0 0 105.109 436.082;"
	 xml:space="preserve">
<style type="text/css">
<![CDATA[
	.st0{fill:url(#SVGID_1_);}
	.st1{fill:url(#SVGID_2_);}
	.st2{fill:url(#SVGID_3_);}
]]>
</style>
<g>
	<g>
		<g>
			<linearGradient id="SVGID_1_" gradientUnits="userSpaceOnUse" x1="52.2666" y1="8.6045" x2="52.2666" y2="418.2598">
				<stop  offset="0" style="stop-color:#882C94"/>
				<stop  offset="1" style="stop-color:#620094"/>
			</linearGradient>
			<path class="st0" d="M5.771,53.088c0,0,20.844,194.443,20.862,200.662c0,0,5.154-13.064,23.009-12.986
				c17.856,0.079,27.812,14.213,27.812,14.213c0.16-6.223,21.274-201.482,21.274-201.482s6.918-49.341-46.32-49.575
				C-0.831,3.688,5.771,53.088,5.771,53.088z"/>
			<linearGradient id="SVGID_2_" gradientUnits="userSpaceOnUse" x1="51.0415" y1="8.6045" x2="51.0415" y2="418.2598">
				<stop  offset="0" style="stop-color:#882C94"/>
				<stop  offset="1" style="stop-color:#620094"/>
			</linearGradient>
			<path class="st1" d="M30.956,259.309c-4.353,3.771-7.312,8.851-8.025,14.658c-3.95,31.941,34.194,36,18.84,67.882
				c6.221-0.933,11.666-3.771,16.326-7.812c15.374-13.315,22.37-39.7,21.223-54.197c-0.39-14.576-11.696-25.702-26.546-27.194
				C44.426,251.811,36.542,254.465,30.956,259.309z"/>
			<linearGradient id="SVGID_3_" gradientUnits="userSpaceOnUse" x1="52.2666" y1="8.6045" x2="52.2666" y2="418.2598">
				<stop  offset="0" style="stop-color:#882C94"/>
				<stop  offset="1" style="stop-color:#620094"/>
			</linearGradient>
			<ellipse class="st2" cx="52.267" cy="388.104" rx="32.733" ry="32.374"/>
		</g>
		<g>
		</g>
		<g>
		</g>
		<g>
		</g>
		<g>
		</g>
		<g>
		</g>
		<g>
		</g>
		<g>
		</g>
		<g>
		</g>
		<g>
		</g>
		<g>
		</g>
		<g>
		</g>
		<g>
		</g>
		<g>
		</g>
		<g>
		</g>
		<g>
		</g>
	</g>
</g>
</svg>
