<?xml version="1.0" encoding="utf-8"?>
<!-- Generator: Adobe Illustrator 16.0.4, SVG Export Plug-In . SVG Version: 6.00 Build 0)  -->
<!DOCTYPE svg PUBLIC "-//W3C//DTD SVG 1.1//EN" "http://www.w3.org/Graphics/SVG/1.1/DTD/svg11.dtd">
<svg version="1.1" id="Layer_1" xmlns="http://www.w3.org/2000/svg" xmlns:xlink="http://www.w3.org/1999/xlink" x="0px" y="0px"
	 width="50px" height="50px" viewBox="0 0 50 50" style="enable-background:new 0 0 50 50;" xml:space="preserve">
<style type="text/css">
<![CDATA[
	.st0{fill:#FFFFFF;}
]]>
</style>
<g>
	<g>
		<g>
			<path class="st0" d="M33.533,50V23.934c0-0.529-0.165-1.02-0.442-1.426c-0.057,0.021-0.118,0.035-0.189,0.036l-16.14-0.001
				c-0.264,0.399-0.42,0.877-0.42,1.391V50H33.533z M18.111,47.037V25.325c0-0.652,1.011-0.653,1.011,0v21.712
				C19.121,47.688,18.111,47.689,18.111,47.037z"/>
			<path class="st0" d="M33.533,19.763V16.35c0-1.396-1.132-2.529-2.528-2.529H29.35c0.09-0.339,0.139-0.713,0.139-1.105
				c0-1.553-0.763-4.835-1.706-4.835l-5.688,0c-0.943,0-1.708,3.282-1.707,4.835c0,0.393,0.049,0.767,0.138,1.106l-1.654,0
				c-1.397,0-2.528,1.132-2.528,2.528v3.412c0,0.691,0.279,1.312,0.729,1.771l15.732-0.001
				C33.253,21.076,33.533,20.454,33.533,19.763z"/>
			<path class="st0" d="M27.347,6.83c0.209-0.005,0.375-0.18,0.371-0.388l-0.112-4.802c-0.004-0.209-0.179-0.375-0.387-0.37
				l-5.062,5.302c0.006,0.209,0.178,0.374,0.388,0.371L27.347,6.83z"/>
		</g>
	</g>
	<g>
	</g>
	<g>
	</g>
	<g>
	</g>
	<g>
	</g>
	<g>
	</g>
	<g>
	</g>
	<g>
	</g>
	<g>
	</g>
	<g>
	</g>
	<g>
	</g>
	<g>
	</g>
	<g>
	</g>
	<g>
	</g>
	<g>
	</g>
	<g>
	</g>
</g>
</svg>
