<?xml version="1.0" encoding="utf-8"?>
<!-- Generator: Adobe Illustrator 16.0.4, SVG Export Plug-In . SVG Version: 6.00 Build 0)  -->
<!DOCTYPE svg PUBLIC "-//W3C//DTD SVG 1.1//EN" "http://www.w3.org/Graphics/SVG/1.1/DTD/svg11.dtd">
<svg version="1.1" id="Layer_1" xmlns="http://www.w3.org/2000/svg" xmlns:xlink="http://www.w3.org/1999/xlink" x="0px" y="0px"
	 width="50px" height="50px" viewBox="0 0 50 50" enable-background="new 0 0 50 50" xml:space="preserve">
<g>
	<g>
		<polygon fill="#FFFFFF" points="39.264,37.246 39.264,33.646 10.739,33.646 10.739,37.246 23.155,37.246 23.155,40.801 
			14.524,40.801 13.37,44.309 36.309,44.309 35.154,40.801 26.755,40.801 26.755,37.246 		"/>
		<g>
			<path fill="#FFFFFF" d="M30.355,9.982c0,0.55-0.451,1-1,1h-8.754c-0.55,0-1-0.45-1-1V6.675c0-0.55,0.45-1,1-1h8.754
				c0.549,0,1,0.45,1,1V9.982z"/>
		</g>
		<polygon fill="#FFFFFF" points="26.801,5.675 26.801,0.321 23.155,0.321 23.155,5.675 19.601,5.675 19.601,8.537 30.355,8.537 
			30.355,5.675 		"/>
		<path fill="#FFFFFF" d="M33.4,37.025h3.762l3.762,10.371c0,0,0.6,1.035-0.877,1.985c-1.477,0.951-2.354-0.692-2.354-0.692
			L33.4,37.025z"/>
		<path fill="#FFFFFF" d="M16.583,37.025h-3.761L9.06,47.396c0,0-0.6,1.035,0.877,1.985c1.477,0.951,2.354-0.692,2.354-0.692
			L16.583,37.025z"/>
	</g>
	<rect x="10.739" y="12.692" stroke="#FFFFFF" stroke-width="2" stroke-miterlimit="10" width="28.524" height="19.108"/>
</g>
</svg>
