<?xml version="1.0" encoding="utf-8"?>
<!-- Generator: Adobe Illustrator 16.0.4, SVG Export Plug-In . SVG Version: 6.00 Build 0)  -->
<!DOCTYPE svg PUBLIC "-//W3C//DTD SVG 1.1//EN" "http://www.w3.org/Graphics/SVG/1.1/DTD/svg11.dtd">
<svg version="1.1" id="Layer_1" xmlns="http://www.w3.org/2000/svg" xmlns:xlink="http://www.w3.org/1999/xlink" x="0px" y="0px"
	 width="50px" height="50px" viewBox="0 0 50 50" style="enable-background:new 0 0 50 50;" xml:space="preserve">
<style type="text/css">
<![CDATA[
	.st0{fill:#FFFFFF;}
]]>
</style>
<g>
	<g>
		<path class="st0" d="M31.986,47.729c-0.574-3.912-0.643-8.273-0.629-9.012c0.004-0.211,0.074-0.688,0.174-1.258
			c-1.6,0.908-3.301,1.482-5.094,1.648c-2.553,0.236-5.085-0.357-7.513-1.641c0.152,1.234,0.238,2.473,0.141,3.357
			c-0.147,1.383-1.161,9.154-1.161,9.154h14.374C32.277,49.979,32.094,48.459,31.986,47.729z"/>
		<path class="st0" d="M25.08,30.916c-5.019-0.24-4.933-2.766-4.933-2.766c-1.911,0.611-1.666,2.51-1.666,2.51
			s-0.631,0.469-0.385,1.365c0.147,0.549,0.555,2.477,0.794,4.408c2.431,1.283,4.961,1.879,7.516,1.643
			c1.791-0.166,3.492-0.74,5.094-1.648c0.246-1.414,0.67-3.459,0.705-3.832c0.051-0.525-0.08-1.33-0.43-1.594
			c-0.348-0.26-0.398-0.734-0.398-0.734c-0.023-1.244-1.551-2.037-1.551-2.037S30.102,31.156,25.08,30.916z"/>
		<path class="st0" d="M23.301,1.755c-1.295,4.564-1.657,5.516-2.973,7.485c-1.314,1.966-1.085,2.311-1.085,2.311
			c1.166,6.033,1.161,16.388,1.161,16.388c0.116,1.131,2.043,2.494,5.187,2.553c3.264,0.061,3.848-1.682,3.848-1.682l1.752-15.637
			c0.045-0.508-0.598-1.063-0.598-1.063c-3.707-3.247-5.168-9.218-5.318-10.111c-0.148-0.894-0.606-0.794-0.606-0.794l-0.254,13.542
			c0.339,0.267,0.573,0.782,0.571,1.381c0,0.868-0.49,1.57-1.093,1.568c-0.603-0.002-1.087-0.706-1.086-1.576
			c0.002-0.654,0.282-1.212,0.676-1.449L23.77,1.666C23.802,1.687,23.301,1.755,23.301,1.755z"/>
	</g>
	<g>
	</g>
	<g>
	</g>
	<g>
	</g>
	<g>
	</g>
	<g>
	</g>
	<g>
	</g>
	<g>
	</g>
	<g>
	</g>
	<g>
	</g>
	<g>
	</g>
	<g>
	</g>
	<g>
	</g>
	<g>
	</g>
	<g>
	</g>
	<g>
	</g>
</g>
</svg>
