<?xml version="1.0" encoding="utf-8"?>
<!-- Generator: Adobe Illustrator 16.0.4, SVG Export Plug-In . SVG Version: 6.00 Build 0)  -->
<!DOCTYPE svg PUBLIC "-//W3C//DTD SVG 1.1//EN" "http://www.w3.org/Graphics/SVG/1.1/DTD/svg11.dtd">
<svg version="1.1" id="Layer_1" xmlns="http://www.w3.org/2000/svg" xmlns:xlink="http://www.w3.org/1999/xlink" x="0px" y="0px"
	 width="50px" height="50px" viewBox="0 0 50 50" style="enable-background:new 0 0 50 50;" xml:space="preserve">
<style type="text/css">
<![CDATA[
	.st0{fill:#FFFFFF;}
]]>
</style>
<g>
	<path class="st0" d="M17.583,50h14.562l0.148-34.062l-14.556-0.111L17.583,50z M26.354,20.443c0.002-0.24,0.096-0.474,0.268-0.645
		c0.172-0.17,0.406-0.266,0.648-0.263l0.861,0.005c0.502,0.002,0.908,0.413,0.906,0.915l-0.084,19.33
		c0,0.242-0.096,0.473-0.268,0.645c-0.172,0.17-0.406,0.266-0.646,0.264l-0.859-0.004c-0.506-0.002-0.91-0.414-0.91-0.916
		L26.354,20.443z"/>
	<path class="st0" d="M26.486,1.951c-0.258-0.544-0.807-0.892-1.405-0.893c-0.603-0.003-1.153,0.337-1.417,0.878l-5.92,12.096
		l14.555,0.064L26.486,1.951z M23.129,7.384l3.845,0.016l2.285,4.772l-8.458-0.037L23.129,7.384z"/>
</g>
</svg>
