<?xml version="1.0" encoding="utf-8"?>
<!-- Generator: Adobe Illustrator 16.0.4, SVG Export Plug-In . SVG Version: 6.00 Build 0)  -->
<!DOCTYPE svg PUBLIC "-//W3C//DTD SVG 1.1//EN" "http://www.w3.org/Graphics/SVG/1.1/DTD/svg11.dtd">
<svg version="1.1" id="Layer_1" xmlns="http://www.w3.org/2000/svg" xmlns:xlink="http://www.w3.org/1999/xlink" x="0px" y="0px"
	 width="30px" height="30px" viewBox="0 0 30 30" style="enable-background:new 0 0 30 30;" xml:space="preserve">
<style type="text/css">
<![CDATA[
	.st0{fill:#E52020;}
]]>
</style>
<g>
	<g>
		<g>
			<g>
				<g>
					<path class="st0" d="M28.353,5.602c-0.293-0.315-0.99-0.999-0.882-0.831l1.148,1.192L28.353,5.602z"/>
					<path class="st0" d="M25.981,3.642c0.532,0.604,1.488,1.641,2.587,2.693c-1.07-1.162-0.643-0.698-1.914-2.078
						c-0.104-0.165,0.429,0.323,0.855,0.76c-0.29-0.312,0.303,0.208-0.417-0.544c-0.943-0.865-1.03-0.851-0.335-0.05
						C26.489,4.176,26.195,3.86,25.981,3.642z"/>
					<path class="st0" d="M21.186,4.819l0.157,0.118C21.262,4.868,21.214,4.833,21.186,4.819z"/>
					<path class="st0" d="M18.698,6.042C18.685,6,18.572,5.877,18.467,5.772C18.532,5.862,18.593,5.943,18.698,6.042z"/>
					<path class="st0" d="M17.086,5.077c0.04,0.025,0.066,0.041,0.099,0.061C17.068,5.036,17.002,4.985,17.086,5.077z"/>
					<path class="st0" d="M21.186,4.819l-0.419-0.316C21.146,4.887,21.076,4.76,21.186,4.819z"/>
					<path class="st0" d="M28.397,6.875c-0.047-0.067-0.146-0.185-0.28-0.334c0.036,0.056,0.069,0.105,0.099,0.149
						C28.277,6.753,28.333,6.809,28.397,6.875z"/>
					<path class="st0" d="M21.044,3.053l0.016-0.016c-0.132-0.138-0.289-0.302-0.466-0.487L21.044,3.053z"/>
					<path class="st0" d="M21.488,2.244c-0.056-0.027,0.935,0.968,1.363,1.406c-0.4-0.415-0.587-0.622-0.651-0.709
						C22.009,2.752,21.782,2.531,21.488,2.244z"/>
					<path class="st0" d="M24.229,2.993l-0.121-0.156C24.144,2.883,24.184,2.935,24.229,2.993z"/>
					<path class="st0" d="M20.384,3.291c-0.151-0.145-0.281-0.27-0.363-0.349C20.147,3.063,20.268,3.18,20.384,3.291z"/>
					<path class="st0" d="M9.46,28.184c-0.063-0.077-0.104-0.126-0.158-0.192C9.388,28.104,9.449,28.181,9.46,28.184z"/>
					<path class="st0" d="M4.272,23.468l-0.037-0.068c-0.167-0.208-0.33-0.411-0.492-0.613L4.272,23.468z"/>
					<path class="st0" d="M15.238,4.382c0.011,0.008,0.012,0.009,0.02,0.015C15.16,4.27,15.17,4.297,15.238,4.382z"/>
					<path class="st0" d="M10.739,10.314c0.935,0.843,1.026,1.25,2.089,2.164C12.437,12.092,11.382,10.829,10.739,10.314z"/>
					<path class="st0" d="M28.25,6.76c0.004,0.021,0.004,0.038-0.015,0.036C28.279,6.817,28.286,6.808,28.25,6.76z"/>
					<path class="st0" d="M12.828,12.479c0.003,0.003,0.009,0.009,0.009,0.009l0.101,0.085
						C12.894,12.536,12.865,12.511,12.828,12.479z"/>
					<path class="st0" d="M14.526,6.29c0.178,0.167,0.315,0.296,0.449,0.421C14.869,6.612,14.743,6.494,14.526,6.29z"/>
					<path class="st0" d="M16.921,6.718l-0.156-0.106C16.864,6.691,16.903,6.715,16.921,6.718z"/>
					<path class="st0" d="M15.419,8.201c-0.089-0.062-0.232-0.196-0.115-0.043c0.052,0.047,0.089,0.082,0.126,0.115
						C15.301,8.13,15.246,8.057,15.419,8.201z"/>
					<path class="st0" d="M14.896,8.739c0.078,0.071,0.137,0.125,0.209,0.191l-0.039-0.072L14.896,8.739z"/>
					<path class="st0" d="M10.86,26.091c-0.269-0.298-0.56-0.62-0.846-0.938C10.67,25.905,10.813,26.253,10.86,26.091z"/>
					<path class="st0" d="M27.838,6.316C28.087,6.571,28.207,6.7,28.25,6.76c-0.004-0.017-0.019-0.043-0.034-0.07
						C28.066,6.543,27.928,6.406,27.838,6.316z"/>
					<path class="st0" d="M23.231,16.07l-0.234-0.062C23.118,16.081,23.201,16.102,23.231,16.07z"/>
					<path class="st0" d="M14.975,22.197l0.093,0.144C15.098,22.356,15.077,22.319,14.975,22.197z"/>
					<path class="st0" d="M22.89,16.413c-0.367-0.338-0.586-0.525-0.734-0.64c0.073,0.08,0.138,0.148,0.245,0.266L22.89,16.413z"/>
					<path class="st0" d="M10.004,25.142c0.003,0.004,0.01,0.012,0.01,0.012S10.007,25.146,10.004,25.142z"/>
					<path class="st0" d="M11.528,28.233c0.119-0.048-1.121-1.422-1.784-2.25c-0.229-0.492,0.928,0.999,1.572,1.688
						c-0.246-0.433-1.287-1.772-1.191-1.761c0.201,0.229,0.281,0.305,0.516,0.605c-0.876-1.182,0.168-0.237-0.945-1.715
						c0.112,0.123,0.214,0.236,0.308,0.34c-0.608-0.705-1.218-1.412-1.655-1.919c0.018-0.06-0.683-0.951,0.114-0.046
						c-0.046-0.005,0.267,0.366,0.5,0.664l-0.3-0.438c1.166,1.291,0.333,0.507,1.167,1.486c-0.283-0.501-1.123-1.676-0.741-1.356
						c1.118,1.28,0.224,0.561,1.289,1.636L9.86,24.761c1.813,1.973-0.182-0.092,1.747,2.029c0.452,0.263-0.415-0.782,0.036-0.52
						c-0.585-0.74-0.919-1.052-1.504-1.792c-0.924-1.44,2.93,3.112,1.588,1.28c-0.703-0.886-2.095-2.522-1.257-1.745l1.225,1.48
						c0.25,0.033-1.737-2.148-0.758-1.283c0.47,0.588,0.318,0.564,0.487,0.721c1.077,1.07-0.654-0.874-0.589-0.93l1.128,1.271
						c-0.042-0.318-0.701-1.367-0.761-1.729c0.327,0.389,0.653,0.811,1.029,1.17c-0.374-0.799,0.536-0.185,1.387,0.41l-0.904-1.154
						c0.025-0.003,0.469,0.469,0.642,0.697c0.44,0.354-0.617-0.7-0.966-1.159c-0.029-0.111,0.614,0.585,0.881,0.935
						c-0.703-1.038-1.437-2.3-0.256-1.242l0.266,0.345c0.5,0.355-1.899-2.333-0.889-1.396l0.157,0.209
						c0.645,0.282-0.016-0.916,1.63,0.566c-1.396-1.59,0.842,0.5-1.135-1.687c1.104,0.965,1.427,1.386,2.258,1.949
						c0.137,0.059-1.179-1.418-1.333-1.696l1.046,1.134l-1.021-1.262l1.289,1.317l-0.216-0.34c-0.082-0.047-0.514-0.468-0.812-0.798
						c-0.391-0.587,0.925,0.604,1.465,1.182l-0.694-1.139c0.417,0.459,0.529,0.646,0.772,0.96c-0.966-1.251,1.123,1.173,0.238,0.027
						c-0.252-0.246-0.618-0.68-0.828-0.911c0.681,0.64,0.793,0.544,0.604,0.182l0.71,0.793c0.326,0.061-0.048-0.66,0.125-0.798
						c-0.395-0.306-1.639-1.662-1.714-1.836l1.131,1.171c-0.657-0.763-0.469-0.403-1.249-1.36c0.186,0.08,1.305,1.312,1.633,1.732
						l-0.313-0.48c0.337,0.351,0.495,0.554,0.915,1.01c-0.662-0.765,1.245,1.073,0.085-0.249l0.335,0.349
						c0.171-0.142-0.142-0.62-0.066-0.802c-0.963-1.025-0.697-0.846-1.439-1.707c0.402,0.234,1.268,0.937,1.301,0.74
						c-0.401-0.585-0.795-0.884-1.334-1.523c0.887,0.922,0.917,0.725,1.493,1.447c-0.005-0.281,0.002-0.352-0.543-1.269
						c-0.382-0.361-0.562-0.507-0.851-0.832c-0.116-0.183,0.442,0.32,0.863,0.77l0.083,0.104c-1.135-1.568,3.036,2.264,1.344,0.191
						l0.083,0.104l-0.806-1.154c0.227,0.087,0.624,0.733,1.229,1.25c-1.31-1.698,0.493-0.037-0.355-1.197
						c2.747,2.603,0.21-0.563,2.046,1.02l-0.632-0.629c-0.571-0.659,0.404,0.32,0.574,0.438c-0.487-0.489-0.601-0.53-0.915-0.898
						c-0.423-1.078,1.564,0.277,2.457,0.524c0.285,0.05-3.166-3.342-1.525-1.98l1.118,1.217c-1.153-1.646,0.536-0.44-0.413-1.867
						c0.255,0.284,0.602,0.635,0.575,0.654c0.896,0.804,0.224-0.142-0.467-0.838c0.115,0.043,0.635,0.623,1.008,0.954
						c0.549,0.452-0.956-1.212-0.089-0.392c0.143,0.134,0.26,0.289,0.316,0.364c-0.378-0.444,0.255-0.045-0.752-0.996
						c0.553,0.38-0.267-0.604,0.382-0.092c-1.047-1.143,0.676,0.377-0.855-1.188c1.589,1.607,1.442,1.139,0.746,0.331
						c0.464,0.502,0.548,0.453,1.195,1.145c0.039-0.087-0.199-0.442-1.031-1.254c2.03,1.799-1.307-1.773,1.212,0.614
						c-0.672-1.048-1.081-1.802-1.289-2.344c1.593,1.598-0.026,0.345,1.658,2.01c-0.499-0.818-1.776-2.274-1.234-2.05
						c0.259,0.176,0.671,0.713,0.93,1c-0.499-0.816,0.455-0.165-0.274-1.173c0.148,0.148,0.296,0.326,0.403,0.46
						c-0.024-0.08,0.301,0.168-0.431-0.55l0.171,0.223c-1.102-1.004-2.096-2.3-2.649-2.858c2.038,2.116,0.665,0.381,3.226,3.069
						c-0.119-0.154-0.44-0.52-0.933-0.999c0.17,0.114,0.463,0.387,0.988,0.963c-0.295-0.492-1.104-1.223-0.998-1.298
						c0.352,0.349,0.471,0.503,0.876,0.923c-0.641-0.727-1.284-1.455-0.909-1.236c0.209,0.216,0.494,0.48,0.466,0.498
						c0.024-0.238-1.609-2.037-0.799-1.522c1.49,1.556,0.553,0.449,1.889,1.751l-0.319-0.468l-0.674-0.604
						c0.088-0.047-0.819-1.061-0.327-0.69l0.497,0.591l-0.126-0.375l-0.575-0.426c-0.616-0.744-1.689-1.653-1.228-1.376
						c0.117,0.152,0.082-0.052,0.9,0.686c0,0,0,0,0.004,0.004c-0.391-0.452-0.802-0.926-0.422-0.65
						c0.428,0.424,1.463,1.448,1.748,1.731c-1.076-1.129-0.152-0.464-1.291-1.673c0.264,0.289,0.959,0.978,1.104,1.112l-0.872-0.917
						c0.319,0.253,0.463,0.386,1.014,0.94c0.258,0.069-1.714-1.635-0.878-1.029c0.064,0.081,0.204,0.21,0.321,0.363
						c0.489,0.262-0.356-0.782,0.188-0.447c1.366,1.292,0.239,0.415,1.399,1.494c-0.096-0.389-1.295-1.892-0.838-1.725L23.965,8.71
						C22.101,6.824,25,9.523,24.185,8.571c0.123,0.157,1.024,1.062,0.817,0.847c0.401,0.203-0.262-0.658-0.707-1.396l0.466,0.498
						c0.489,0.37,0.399,0.093,0.684,0.25c-0.466-0.499-0.352-0.457-1.077-1.133c2.946,2.541-1.11-1.835,1.354,0.271
						c-0.014,0.027,0.374,0.469,0.394,0.456l-0.302-0.59c-0.829-0.801-0.515-0.473-1.182-1.076
						c-0.469-0.502-0.804-0.917-0.768-0.953c0.477,0.604,1.316,1.307,1.802,1.733c-0.253-0.253-0.528-0.528-0.782-0.782
						c1.534,1.373-1.635-1.652-0.55-0.78l0.424,0.433c-0.18-0.256-0.714-0.858-0.549-0.778c0.966,0.926,0.402,0.482,1.179,1.26
						c0.003-0.114-1.68-1.902-0.684-1.018c0.24,0.289,0.21,0.33,0.446,0.615c1.17,1.049,0.894,0.76,1.112,0.892l-0.028-0.02
						L26.836,7.7L26.51,7.426c-2.396-2.532-0.303-0.601-1.821-2.311c1.436,1.622,0.87,0.898,1.937,1.976
						c0.323,0.271,0.693,0.563,0.985,0.875c-0.82-0.911,0.759,0.6-0.439-0.726c0.349,0.342,0.083-0.018,0.938,0.856
						c-0.209-0.33-0.614-0.583-1.043-1.021c-1.086-1.27,1.651,1.205,0.167-0.544c-0.551-0.783-1.694-1.967-2.164-2.652
						c0.588,0.514,1.227,1.284,1.227,1.284c0.567,0.448,0.518,0.31,0.177-0.141c0.29,0.311,0.558,0.555,0.961,0.924
						c-0.045-0.135-1.227-1.284-0.658-0.834c0.37,0.394,0.957,1.02,1.342,1.428c-0.267-0.37-0.859-1.065-1.116-1.431
						c0.616,0.586,0.88,0.944,1.253,1.354c-0.209-0.33-0.387-0.702-1.319-1.672l-0.378-0.299c-0.026-0.071,0.827,0.803,0.984,0.994
						c0.694,0.798-0.404-0.254-0.753-0.596l-0.183-0.26c-2.063-1.982,0.17,0.481-0.025,0.441l-1.439-1.502l1.141,1.298
						c-0.399-0.364-1.233-1.173-1.414-1.431c-0.783-0.669,0.473,0.571-0.386-0.189c-0.132-0.121-0.2-0.194-0.252-0.256l0.383,0.492
						c-0.299-0.32-1.048-1.027-0.804-0.851c-0.946-0.748,0.948,1.263-0.205,0.187l-0.082-0.098c0.362,0.634,1.069,1.093,2.234,2.459
						l-2.735-2.59l1.068,1.092c-0.054-0.025-0.162-0.079-0.59-0.515c0.688,0.791,0.479,0.46,1.147,1.187
						c-1.053-0.914,0.274,0.646-1.463-1.055c0.799,0.845,0.699,0.567,1.199,1.21c-1.874-1.827,0.233,0.399-0.677-0.385
						c-0.939-0.974-0.372-0.526-1.289-1.315c1.579,1.646-0.475-0.232-0.217,0.129c1.285,1.284,0.424,0.648,0.766,1.163
						c-0.427-0.436-0.87-0.537-1.419-0.92l-0.212-0.216c1.286,1.311,0.956,1.151,1.166,1.48c-0.78-0.78-1.074-1.094-1.391-1.475
						L21.06,3.038c0.402,0.427,0.605,0.666,0.718,0.851l-0.959-0.982c-0.024,0.129,0.993,1.294,0.243,0.747
						c0.902,0.907,2.606,2.434,3.109,3.14c-0.493-0.483-1.338-1.314-1.512-1.541c0.058,0.074,0.377,0.438,0.148,0.246l-0.783-0.861
						c-0.408-0.316,0.666,0.708,0.554,0.669c-0.7-0.698-0.526-0.471-1.078-1.028c-0.058-0.076,0.322,0.258,0.059-0.031
						c-0.164-0.083-0.629-0.447-1.175-0.957c0.401,0.392,0.942,0.936,1.005,1.057c-0.026,0.127-0.87-0.811-1.273-1.122
						c0.469,0.502-0.087,0.049,0.961,1.091c-0.027,0.017-0.521-0.463-0.813-0.737c0.424,0.499-0.053,0.317,1.108,1.379l0.082,0.062
						c0.017,0.021,0.021,0.027,0.039,0.051v0v0c0.914,1.166-0.861-0.316-0.542,0.256L20.6,4.981c0.326,0.476,0.067,0.408,0.768,1.21
						c-0.023,0.023-0.695-0.582-1.103-1.003c0.205,0.32,0.593,0.717-0.069,0.23c-0.556-0.667-0.565-0.519-0.39-0.506
						c-0.38-0.224-0.959-0.762-0.081,0.27c-0.871-0.918-1.188-1.062-0.956-0.759l0.695,0.582c0.091,0.172-0.024,0.129-0.137,0.09
						l-1.164-1.191c-1.594-1.264,2.168,2.706-0.358,0.446c0.785,0.858,0.666,0.489,1.597,1.482
						c-0.116-0.043-0.617-0.465-1.093-0.874c-0.237-0.205-0.469-0.404-0.643-0.554c-0.173-0.149-0.289-0.246-0.295-0.241
						c-0.754-0.547,1.638,1.801,1.087,1.463c0.434,0.402,1.575,1.504,1.895,1.973c-0.228-0.082-1.858-1.659-2.152-2.039
						c-0.018-0.051,0.123,0.07,0.267,0.213c-0.132-0.176-0.281-0.385-0.767-0.808l0.412,0.426c-0.466-0.389-0.52-0.245-1.189-0.953
						c0.349,0.453,0.67,0.708,0.929,0.883C17.148,4.81,17.69,5.45,17.185,5.137c0.248,0.215,0.757,0.69,0.738,0.702
						c-0.661-0.378,0.74,0.851,0.832,1.129c-0.697-0.583-1.518-1.538-1.071-0.91c-0.495-0.375-1.134-1.097-1.455-1.459
						c0.729,0.891-0.694-0.369-0.892-0.468l-0.295-0.382c0.176,0.228,0.149,0.245,0.124,0.264l0.869,0.809
						c-0.172-0.118-0.198-0.099-0.548-0.446c0.524,0.573,1.423,1.367,2.125,2.17c-0.465-0.391,0.351,0.562-0.778-0.533
						c0.488,0.263-1.137-1.102-1.223-1.374c0.114,0.149,0.088,0.167-0.087,0.046c-0.129-0.12-0.229-0.234-0.284-0.303
						c-1.106-0.886,1.215,1.301,1.08,1.386c-0.617-0.64-1.222-1.161-1.104-1.009c0.058-0.03,1.072,1.021,1.515,1.541
						c-0.562-0.416,0.289,0.44,0.193,0.418l0.274,0.188c0.614,0.639,0.497,0.593,0.646,0.839c-0.494-0.482-0.291-0.378-0.527-0.578
						c1.054,1.156-1.269-1.014-0.598-0.195c-0.464-0.39-1.188-1.174-1.507-1.429c0.73,0.896-0.954-0.765-0.37-0.006
						c0.872,0.816,0.669,0.605,1.43,1.488l-0.448-0.74l1.135,1.319c0.057-0.033-0.437-0.623-0.267-0.507
						c0.646,0.732,0.438,0.518,1.163,1.195c-1.331-1.203,0.616,0.855-0.31,0.076l-2.091-2.087c-1.04-0.825,0.884,1.257,0.221,0.871
						L16.08,7.47c0.814,0.85,0.032,0.202,0.323,0.582c-0.694-0.701-0.974-0.925-1.429-1.34c0.521,0.515-0.149,0.052,1.234,1.459
						l-0.982-0.858c-0.487-0.266,1.862,2.116,1.518,1.986c-0.728-0.792-1.269-1.237-1.741-1.853
						c-0.042,0.028-0.202-0.067,0.282,0.418c-0.459-0.418,0.84,1.039,0.144,0.408c0.292,0.323,1.017,1.059,0.919,1.042
						c-0.143-0.144-0.345-0.346-0.345-0.346c0.345,0.346,0.406,0.533,1.212,1.271c-2.284-2.07-0.151,0.466-2.111-1.309
						c0.154,0.312,0.284,0.63,0.264,0.751c-0.202-0.212-0.346-0.348-0.26-0.289c-0.745-0.554,1.938,2.071,1.104,1.455
						c-1.182-1.076-0.55-0.672-1.011-1.065c-2.305-2.291,0.177,0.448-1.232-0.822l-0.116-0.153c-0.833-0.727,0.728,1.013,0.469,0.94
						c0,0-0.199-0.202-0.343-0.348c1.101,1.24,1.365,1.75,1.599,2.168c-0.866-0.933-0.431-0.518-1.358-1.421
						c0.09,0.172,1.471,1.464,1.645,1.802c-0.516-0.469-1.001-0.843-1.977-1.814l0.023-0.13c-1.293-1.23-0.055,0.142-0.313-0.039
						l-0.542-0.559c0.063,0.296,1.44,1.695,1.215,1.72l0.428,0.408c1.298,1.454-0.825-0.722,0.122,0.376l-1.405-1.384
						c0.289,0.384,1.182,1.518,1.361,1.864c-0.981-1.09-1.411-1.717-1.963-2.395c-0.055,0.034-0.05,0.254,0.61,0.972
						c-0.115-0.154-0.432-0.521-0.202-0.323c1.035,1.161,1.497,1.776,1.383,1.842c-2.665-2.742-0.907-0.452-3.056-2.516
						c0.832,1.162-0.736-0.133-0.76,0.203c2.142,2.07,0.004,0.111,2.149,2.292c0.091,0.18,0.04,0.16-0.102,0.022l-1.403-1.186
						c-0.652-0.61-0.429-0.522-0.911-1.011c-0.257-0.079-0.94-0.891-1.569-1.418c0.774,0.773,1.059,1.156,0.715,0.907l1.055,0.94
						c1.001,1.295-1.896-1.734-0.907-0.452L9.189,9.537c0.326,0.471-0.261,0.22,1.375,2.054c-0.257-0.244-0.854-0.833-0.976-1.019
						c-0.416-0.114,1.447,2.229,0.275,1.256L9.36,11.276c0.12,0.186,0.917,1.065,0.359,0.557c-0.21-0.224-0.503-0.552-0.548-0.57
						c0.163,0.202,0.824,1.025,0.483,0.747l-0.545-0.641c-0.832-0.56,1.17,1.714,1.388,2.214c-1.513-1.597-2.13-2-2.437-2.201
						l-0.211-0.228c-0.368-0.024,0.941,1.622,1.36,2.415c-1.74-1.641-1.044-0.389-2.126-1.207c0.297,0.267,1.164,1.258,1.283,1.448
						c-0.342-0.287,0.93,1.225-0.437-0.258l0.039,0.013c-1.378-1.421-1.1-0.958-1.201-0.937l1.784,1.945
						c-2.776-2.659,0.516,1.457-1.908-0.985c0.406,0.523,0.353,0.567,0.758,1.091l-0.956-1.045c-0.356-0.16-0.533-0.241-0.442,0.141
						L5.35,13.001c-0.136,0.008,2.656,3.106,2.639,3.237l-1.445-1.54c-0.114,0.159-1.504-1.104-0.354,0.439
						c-0.206-0.232-0.613-0.69-0.646-0.771c-0.104,0.015-1.21-0.846,0.754,1.289c-1.266-1.403-0.268-0.014,0.21,0.672l-0.918-1.048
						c1.125,1.382,1.447,1.747,1.685,2.193c-0.144-0.118-0.762-0.816-0.496-0.575c-0.558-0.483,0.822,1.032,0.24,0.553L6.459,16.76
						c-0.145-0.017,0.18,0.335,0.826,1.145c0.326,0.46-0.375-0.142-1.22-1.076c0.5,0.584,1.141,1.389,0.856,1.154
						C6.6,17.631,6.42,17.396,6.333,17.281c-0.75-0.605,0.889,1.373-0.102,0.418c-0.307-0.345-0.463-0.512-0.564-0.612
						c0.12-0.059,0.25-0.067,0.309,0.015c-0.85-0.963-1.077-1.067-2.188-2.449c0.579,0.777,1.861,2.45,1.386,2.062
						c-0.085-0.092-0.169-0.182-0.303-0.325l-0.087-0.114c-0.101-0.081-0.04,0.021,0.089,0.196
						c-0.164-0.139-0.282-0.243-0.317-0.235c-0.708-0.792-0.466-0.356-0.541-0.363c0.928,1.057,0.729,0.932,1.54,1.765
						c-0.072-0.07-0.104-0.134-0.116-0.2c-0.02-0.034-0.027-0.057-0.078-0.123c0.024,0.03,0.053,0.064,0.079,0.097
						c-0.001-0.054,0.011-0.106,0.035-0.156c0.44,0.565,0.803,1.046,0.245,0.495c0.571,0.698,1.158,1.416,1.436,1.756
						c-1.343-1.43-2.142-2.141-2.948-3.041c0.398,0.697,0.062,0.632,1.711,2.698c0.186,0.285-0.534-0.539-0.817-0.843
						c-0.154-0.219-0.104-0.207-0.342-0.505c0.375,0.573-0.029,0.373,1.156,1.788c-0.63-0.559-1.058-1.331-0.979-1L4.583,18.16
						c-2.141-2.045,2.673,3.913-0.037,1.252c0.168,0.162,0.246,0.236,0.448,0.468c-1.368-1.022,0.392,1.731-1.593-0.052
						c-0.422-0.339,0.32,0.575,0.839,1.311l-0.98-1.15l1.022,1.42c0.684,1.092-2.565-2.681-1.19-0.683l0.665,0.771
						c-0.178-0.102,0.2,0.616-0.528-0.296c0.111,0.148,0.647,0.833,0.292,0.443l-0.501-0.612l0.715,1.169
						c-0.467-0.352-1.959-2.449-2.209-2.437c0.136,0.286,1.283,1.93,1.636,2.323c0.048,0.011,0.368,0.331,0.869,0.946l0.204,0.365
						c1.453,1.821,2.904,3.715,4.064,4.86L7.501,27.07l0.743,0.852l-0.039,0.123c0.716,0.788,0.154,0.031-0.221-0.499
						c0.386,0.46,0.664,0.774,0.825,0.933l-1.307-1.808c0.586,0.696,1.098,1.44,1.479,1.775c-0.608-0.841-1.332-1.549-1.687-2.139
						c0.713,0.781,1.246,1.462,0.729,0.716c0.385,0.457,0.616,0.764,0.761,0.987c-0.407-0.601-0.064-0.347-0.823-1.327
						c0.875,0.97-0.053-0.401,1.34,1.308C8.983,27.57,8.29,26.58,8.276,26.473c1.594,2.106,0.263-0.023,2.042,2.178
						c-1.45-1.882-0.453-1.001-1.186-2.105c0.114,0.15,0.346,0.453,0.26,0.369c0.186,0.101,0.659,0.634,0.985,0.946
						c-1.244-1.513-1.439-1.938-2.164-2.907c1.285,1.39,1.429,1.804,2.615,3.179c-1.021-1.218-0.887-1.326-1.761-2.32
						c0.806,0.85,0.411,0.394,1.484,1.615c-1.564-1.888-0.214-0.363-1.134-1.556c0.856,0.854,1.497,1.739,1.105,1.091
						C11.051,27.5,11.528,28.233,11.528,28.233z M10.894,23.191c0.01,0.012,0.016,0.019,0.019,0.022
						c0.003,0.04,0.007,0.074,0.008,0.096C10.916,23.286,10.908,23.252,10.894,23.191z M11.054,23.024
						c-0.058-0.024-0.091-0.009-0.113,0.023c-0.326-0.358-0.649-0.739-0.614-0.734C10.531,22.563,10.757,22.739,11.054,23.024z
						 M4.274,16.011c-0.106-0.172,0.084,0.027,0.277,0.241c0.004,0.029,0.021,0.076,0.066,0.166
						c0.034,0.041,0.072,0.086,0.109,0.131C4.554,16.345,4.395,16.154,4.274,16.011z"/>
					<path class="st0" d="M5.438,17.438c0.017,0.027,0.055,0.075,0.057,0.086c0.087,0.088,0.161,0.162,0.225,0.227
						c-0.095-0.115-0.19-0.23-0.28-0.339C5.44,17.42,5.437,17.427,5.438,17.438z"/>
					<path class="st0" d="M21.371,4.958l-0.028-0.021c0.045,0.04,0.085,0.077,0.149,0.134C21.441,5.024,21.41,4.995,21.371,4.958z"
						/>
					<polygon class="st0" points="15.255,22.884 15.017,22.625 15.21,22.865 					"/>
					<path class="st0" d="M25.665,7.478c0.089,0.081,0.18,0.164,0.266,0.242C25.863,7.658,25.769,7.572,25.665,7.478z"/>
					<path class="st0" d="M26.262,7.318l0.41,0.301C26.446,7.441,26.334,7.364,26.262,7.318z"/>
					<path class="st0" d="M27.045,7.52c-0.173-0.177-0.302-0.309-0.42-0.429c-0.003-0.003-0.003-0.003-0.009-0.008L27.045,7.52z"/>
					<path class="st0" d="M23.615,13.323c0.003,0.011,0.011,0.027,0.033,0.056C23.816,13.599,23.758,13.505,23.615,13.323z"/>
					<path class="st0" d="M22.664,9.629c0.159,0.19,0.315,0.376,0.428,0.511C23.193,10.19,23.231,10.19,22.664,9.629z"/>
					<path class="st0" d="M23.259,16.078l-0.018-0.018c0,0.007-0.006,0.007-0.01,0.01L23.259,16.078z"/>
					<path class="st0" d="M23.012,10.187c0.222,0.171,0.2,0.109,0.08-0.047C23.005,10.093,22.879,10.016,23.012,10.187z"/>
					<path class="st0" d="M28.746,6.707l0.056,0.028c-0.065-0.066-0.118-0.12-0.159-0.163L28.746,6.707z"/>
					<path class="st0" d="M28.643,6.572l-0.102-0.133C28.533,6.446,28.536,6.461,28.643,6.572z"/>
					<path class="st0" d="M28.324,6.158l0.217,0.281C28.556,6.431,28.601,6.448,28.324,6.158z"/>
					<path class="st0" d="M27.905,6.634l0.356,0.365C28.186,6.921,28.073,6.806,27.905,6.634z"/>
					<path class="st0" d="M27.895,6.856c0.108,0.053,0.838,0.697,0.65,0.433l-0.283-0.29C28.779,7.551,27.312,6.222,27.895,6.856z"
						/>
					<path class="st0" d="M22.947,2.897l0.386,0.189c-0.4-0.365-0.941-0.86-0.989-0.996C21.074,1.072,23.229,2.921,22.947,2.897z"/>
					<path class="st0" d="M22.085,2.647c-0.126-0.231-0.558-0.554-0.773-0.774C21.628,2.255,21.71,2.353,22.085,2.647z"/>
					<path class="st0" d="M19.889,4.859l-0.903-0.906C19.076,4.125,19.339,4.305,19.889,4.859z"/>
					<polygon class="st0" points="24.17,9.932 24.775,10.452 23.961,9.609 					"/>
					<polygon class="st0" points="17.444,3.775 17.333,3.63 17.596,4.025 					"/>
					<path class="st0" d="M14.111,7.762l1.125,1.105C15.064,8.64,13.82,7.38,14.111,7.762z"/>
					<path class="st0" d="M13.665,10.483c-0.571-0.544-0.97-0.859-0.456-0.283C13.322,10.243,13.788,10.644,13.665,10.483z"/>
					<polygon class="st0" points="7.12,13.19 6.794,12.773 7.032,13.153 					"/>
				</g>
			</g>
		</g>
	</g>
</g>
</svg>
