<?xml version="1.0" encoding="utf-8"?>
<!-- Generator: Adobe Illustrator 16.0.4, SVG Export Plug-In . SVG Version: 6.00 Build 0)  -->
<!DOCTYPE svg PUBLIC "-//W3C//DTD SVG 1.1//EN" "http://www.w3.org/Graphics/SVG/1.1/DTD/svg11.dtd">
<svg version="1.1" id="Layer_1" xmlns="http://www.w3.org/2000/svg" xmlns:xlink="http://www.w3.org/1999/xlink" x="0px" y="0px"
	 width="50px" height="100px" viewBox="0 -25 50 100" enable-background="new 0 -25 50 100" xml:space="preserve">
<rect x="5.239" y="19.727" width="39.521" height="2.041"/>
<g>
	<g>
		<path fill="#FFFFFF" d="M43.771,7.936h-9.576c-6.49-4.517-3.506-11.167-1.107-16.466c1.002-2.204,1.791-3.948,1.791-5.335
			c0-6.444-4.971-9.815-9.882-9.815c-4.91,0-9.876,3.371-9.876,9.815c0,1.393,0.794,3.142,1.797,5.35
			c2.405,5.291,5.39,11.927-1.114,16.454H6.228c-2.724,0-4.94,2.148-4.94,4.875v5.928c0,0.549,0.444,0.988,0.987,0.988h0.99v2.965
			c0,0.547,0.443,0.988,0.987,0.988h41.496c0.545,0,0.988-0.441,0.988-0.988v-2.965h0.988c0.543,0,0.986-0.439,0.986-0.988v-5.928
			C48.713,10.085,46.496,7.936,43.771,7.936z M44.762,21.768H5.239v-2.041H44.76v2.041H44.762z"/>
	</g>
</g>
<g>
	<g>
		<linearGradient id="SVGID_1_" gradientUnits="userSpaceOnUse" x1="24.9995" y1="26.125" x2="24.9995" y2="73.4883">
			<stop  offset="0" style="stop-color:#882C94"/>
			<stop  offset="1" style="stop-color:#620094"/>
		</linearGradient>
		<path fill="url(#SVGID_1_)" d="M43.771,57.936h-9.576c-6.49-4.517-3.506-11.166-1.107-16.467c1.002-2.203,1.791-3.947,1.791-5.335
			c0-6.444-4.971-9.815-9.882-9.815c-4.91,0-9.876,3.371-9.876,9.815c0,1.394,0.794,3.142,1.797,5.351
			c2.405,5.291,5.39,11.927-1.114,16.453H6.228c-2.724,0-4.94,2.148-4.94,4.875v5.928c0,0.549,0.444,0.988,0.987,0.988h0.99v2.965
			c0,0.547,0.443,0.988,0.987,0.988h41.496c0.545,0,0.988-0.441,0.988-0.988v-2.965h0.988c0.543,0,0.986-0.439,0.986-0.988v-5.928
			C48.713,60.085,46.496,57.936,43.771,57.936z M44.762,71.768H5.239v-2.041H44.76v2.041H44.762z"/>
	</g>
</g>
</svg>
