<?xml version="1.0" encoding="iso-8859-1"?>
<!-- Generator: Adobe Illustrator 19.0.0, SVG Export Plug-In . SVG Version: 6.00 Build 0)  -->
<svg version="1.1" id="Capa_1" xmlns="http://www.w3.org/2000/svg" xmlns:xlink="http://www.w3.org/1999/xlink" x="0px" y="0px"
	 viewBox="0 0 522.462 522.462" style="enable-background:new 0 0 522.462 522.462;" xml:space="preserve">
<g>
	<path d="M468.039,348.667H362.545c-71.512-49.743-38.64-122.996-12.213-181.403c11.037-24.294,19.745-43.495,19.745-58.777
		c0-70.989-54.771-108.128-108.89-108.128c-54.075,0-108.803,37.138-108.803,108.128c0,15.347,8.751,34.613,19.81,58.929
		c26.493,58.298,59.386,131.399-12.278,181.251H54.423C24.403,348.667,0,372.352,0,402.372v65.308
		c0,6.03,4.898,10.885,10.885,10.885h10.885v32.654c0,6.03,4.898,10.885,10.885,10.885h457.154c5.987,0,10.885-4.855,10.885-10.885
		v-32.654h10.885c5.987,0,10.885-4.855,10.885-10.885v-65.308C522.462,372.352,498.058,348.667,468.039,348.667z M478.923,501.052
		H43.539v-22.488h435.385V501.052z"/>
</g>
<g>
</g>
<g>
</g>
<g>
</g>
<g>
</g>
<g>
</g>
<g>
</g>
<g>
</g>
<g>
</g>
<g>
</g>
<g>
</g>
<g>
</g>
<g>
</g>
<g>
</g>
<g>
</g>
<g>
</g>
</svg>
